<svg 
 xmlns="http://www.w3.org/2000/svg"
 xmlns:xlink="http://www.w3.org/1999/xlink"
 width="16px" height="44px">
<path fill-rule="evenodd"  fill="rgb(93, 168, 239)"
 d="M7.999,0.0 C5.678,0.0 0.0,7.211 0.0,20.580 C0.0,34.87 4.966,43.244 5.178,43.626 L5.383,43.999 L10.615,43.999 L10.821,43.626 C11.33,43.244 15.999,34.87 15.999,20.580 C15.999,7.211 10.321,0.0 7.999,0.0 ZM9.733,42.580 L8.727,42.580 L8.727,37.612 L7.272,37.612 L7.272,42.580 L6.266,42.580 C5.612,41.264 3.451,36.550 2.261,29.742 C3.375,31.406 5.63,33.183 7.628,34.674 C10.450,36.314 11.130,38.369 11.272,38.960 C10.607,40.753 10.22,41.999 9.733,42.580 ZM11.973,36.924 C11.361,35.866 10.280,34.563 8.373,33.453 C2.629,30.116 1.722,25.274 1.594,24.298 C1.534,23.460 1.497,22.598 1.477,21.718 C2.518,23.604 4.362,25.756 7.639,27.583 C12.311,30.189 13.98,32.768 13.111,32.813 C12.754,34.333 12.364,35.711 11.973,36.924 ZM8.360,26.339 C1.503,22.515 1.587,17.31 1.594,17.31 L1.592,17.31 C2.307,7.806 5.617,3.326 7.272,1.884 L7.272,24.128 L8.727,24.128 L8.727,1.884 C10.589,3.506 14.545,9.404 14.545,20.580 C14.545,24.309 14.143,27.712 13.570,30.684 C12.727,29.515 11.180,27.912 8.360,26.339 Z"/>
</svg>